HIERARCHY
ROOT hip
{
	OFFSET 0.000000 0.000000 0.000000 
	CHANNELS 6 Xposition Yposition Zposition Xrotation Zrotation Yrotation
	JOINT abdomen
	{
		OFFSET 0.000000 3.402643 0.000000 
		CHANNELS 3 Xrotation Zrotation Yrotation
		JOINT chest
		{
			OFFSET 0.000000 8.438565 -0.680529 
			CHANNELS 3 Xrotation Zrotation Yrotation
			JOINT neck
			{
				OFFSET 0.000000 10.207942 -0.272212 
				CHANNELS 3 Xrotation Zrotation Yrotation
				JOINT head
				{
					OFFSET 0.000000 3.130431 0.000000 
					CHANNELS 3 Xrotation Zrotation Yrotation
					End Site
					{
						OFFSET 0.000000 3.130435 0.000000 
					}
				}
			}
			JOINT lCollar
			{
				OFFSET 3.470700 6.669187 -0.816635 
				CHANNELS 3 Yrotation Zrotation Xrotation
				JOINT lShldr
				{
					OFFSET 3.198488 0.000000 0.000000 
					CHANNELS 3 Zrotation Yrotation Xrotation
					JOINT lForeArm
					{
						OFFSET 10.139888 0.000000 0.000000 
						CHANNELS 3 Yrotation Zrotation Xrotation
						JOINT lHand
						{
							OFFSET 8.370511 0.000000 0.000000 
							CHANNELS 3 Zrotation Yrotation Xrotation
							End Site
							{
								OFFSET 4.083176 0.000000 0.000000 
							}
						}
					}
				}
			}
			JOINT rCollar
			{
				OFFSET -3.470700 6.669187 -0.816635 
				CHANNELS 3 Yrotation Zrotation Xrotation
				JOINT rShldr
				{
					OFFSET -3.198488 0.000000 0.000000 
					CHANNELS 3 Zrotation Yrotation Xrotation
					JOINT rForeArm
					{
						OFFSET -10.139888 0.000000 0.000000 
						CHANNELS 3 Yrotation Zrotation Xrotation
						JOINT rHand
						{
							OFFSET -8.370511 0.000000 0.000000 
							CHANNELS 3 Zrotation Yrotation Xrotation
							End Site
							{
								OFFSET -4.083176 0.000000 0.000000 
							}
						}
					}
				}
			}
		}
	}
	JOINT lThigh
	{
		OFFSET 5.308129 -1.633274 1.361059 
		CHANNELS 3 Xrotation Zrotation Yrotation
		JOINT lShin
		{
			OFFSET -2.041588 -20.007561 0.000000 
			CHANNELS 3 Xrotation Zrotation Yrotation
			JOINT lFoot
			{
				OFFSET 0.000000 -19.190928 -1.224953 
				CHANNELS 3 Xrotation Yrotation Zrotation
				End Site
				{
					OFFSET 0.000000 -2.449906 4.627600 
				}
			}
		}
	}
	JOINT rThigh
	{
		OFFSET -5.308129 -1.633274 1.361059 
		CHANNELS 3 Xrotation Zrotation Yrotation
		JOINT rShin
		{
			OFFSET 2.041588 -20.007561 0.000000 
			CHANNELS 3 Xrotation Zrotation Yrotation
			JOINT rFoot
			{
				OFFSET 0.000000 -19.190928 -1.224953 
				CHANNELS 3 Xrotation Yrotation Zrotation
				End Site
				{
					OFFSET 0.000000 -2.449906 4.627600 
				}
			}
		}
	}
}
MOTION
Frames: 8
Frame Time: 0.033333
2.311124 29.422789 2.311110 -0.156251 -0.146484 1.045321 25.100264 6.293543 -16.618797 -5.009752 0.075314 7.892099 19.805981 -0.485250 -1.633022 10.524219 0.508720 -0.030344 -4.119404 -4.599844 -1.648883 -49.057690 -37.469677 7.752629 -75.855042 -3.102728 1.348338 25.823107 10.449607 -60.850311 -0.111671 6.773360 -1.753387 84.353661 45.484646 7.999109 63.696186 2.949653 1.654178 74.899925 42.461281 108.742706 -61.528671 4.325945 2.517198 85.944847 2.686149 -4.631060 -25.004353 13.804839 -0.274415 -25.088427 -33.110645 -37.363792 104.709152 -4.027092 4.189754 -54.850147 8.730308 4.086317 
3.527064 26.396898 3.527064 -0.156251 -0.146484 1.045321 25.166752 6.230900 -16.907272 -4.882785 0.103472 8.339646 21.915462 0.104674 -0.898899 10.524219 0.508720 -0.030344 -3.482302 -3.928866 0.517943 -49.862606 -34.430290 7.922657 -75.727730 -3.101365 1.362993 25.823107 10.449607 -60.850311 -2.214243 9.246121 0.325628 80.596931 45.243877 9.045249 64.267075 2.959767 1.648223 71.875809 43.220047 102.921959 -65.810020 -1.972803 -1.569632 94.858650 3.328791 -4.497868 -30.065113 21.490149 -0.961923 -15.343927 -44.598129 -54.427025 111.842934 -4.466509 3.932743 -59.364677 25.803616 4.260086 
4.176687 26.480190 4.176687 -0.156251 -0.146484 1.045321 25.282473 6.206985 -17.189856 -4.677684 0.140936 8.829241 24.124376 0.642092 -0.058196 10.524219 0.508720 -0.030344 -2.778255 -3.226931 2.767237 -50.749287 -31.601503 8.124920 -75.598900 -3.102913 1.358559 25.823107 10.449607 -60.850311 -4.634771 11.759395 2.591430 76.664330 45.365425 10.099019 64.859520 2.969964 1.629324 68.657532 43.747375 96.845001 -66.265907 -4.628759 -3.937703 96.605072 3.446730 -4.468514 -29.488567 24.870028 -2.727127 -8.459270 -47.791992 -63.904324 113.221939 -4.545094 3.868575 -58.653950 33.189671 3.254135 
4.371013 30.361156 4.371013 -0.156251 -0.146484 1.045321 25.436678 6.204154 -17.472794 -4.423746 0.178277 9.368083 26.432177 1.124380 0.866865 10.524219 0.508720 -0.030344 -2.031440 -2.492677 5.096178 -51.682163 -28.954084 8.333222 -75.478790 -3.096573 1.361291 25.823107 10.449607 -60.850311 -7.290442 14.148626 5.043959 72.589531 45.796738 10.992867 65.454918 2.976639 1.619202 65.298210 44.034962 90.588219 -62.626217 -2.977401 -4.637030 89.092064 2.948847 -4.616821 -22.862888 23.493002 -4.658591 -9.873638 -43.954849 -59.910007 107.122383 -4.174620 4.107347 -52.474751 29.556845 2.285756 
4.420987 36.041164 4.420987 -0.566431 -0.537083 1.948669 25.620012 6.231194 -17.752941 -4.140482 0.234219 9.942190 28.780416 1.555673 1.847472 10.524219 0.508720 -0.030344 -1.276102 -1.723582 7.446341 -52.625084 -26.467098 8.556469 -75.352608 -3.097367 1.366438 25.823107 10.449607 -60.850311 -10.123553 16.298937 7.612516 68.411568 46.428581 11.561985 66.053368 2.983758 1.609092 61.902782 44.054886 84.320091 -57.281948 0.293045 -4.409509 77.023911 2.079372 -4.689923 -13.947865 20.267698 -6.176085 -13.018692 -37.000786 -51.687012 97.220535 -3.530483 4.396732 -44.041145 21.552105 2.181584 
4.432088 42.615051 4.432088 -1.172089 -1.093521 2.746977 25.822367 6.258357 -18.033630 -3.827917 0.280596 10.523952 31.167103 1.912426 2.901115 10.524219 0.508720 -0.030344 -0.487069 -0.924513 9.814178 -53.551140 -24.085432 8.790758 -75.224380 -3.095038 1.371582 25.823107 10.449607 -60.850311 -12.956652 18.118002 10.284315 64.153664 47.137882 11.638317 66.642906 2.996174 1.581253 58.586582 43.805504 78.155296 -51.018299 4.462519 -3.333068 63.149403 1.087942 -4.542334 -3.808910 15.896894 -7.791913 -15.704167 -28.043392 -42.351795 85.886810 -2.719294 4.580399 -34.178806 11.133071 2.465050 
4.432088 49.183384 4.432088 -1.905203 -1.766602 3.486462 26.025774 6.291128 -18.301390 -3.505572 0.326793 11.106277 33.563557 2.215248 3.975482 10.524219 0.508720 -0.030344 0.279041 -0.098032 12.173291 -54.420464 -21.806259 9.031822 -75.095871 -3.091702 1.376000 25.823107 10.449607 -60.850311 -15.682743 19.521074 13.004200 59.853588 47.804409 11.064157 67.224319 2.999431 1.572343 55.424316 43.328018 72.209328 -44.630039 8.777584 -1.670367 50.295757 0.230333 -4.204492 6.444805 11.015793 -9.650929 -17.167564 -18.590340 -33.737637 75.456291 -1.972478 4.644916 -24.135666 0.189774 2.975177 
4.432088 54.824486 4.432088 -2.697797 -2.458213 4.207487 26.227139 6.318462 -18.584068 -3.202763 0.363539 11.686075 35.958260 2.452904 5.061638 10.524219 0.508720 -0.030344 1.021855 0.742576 14.514253 -55.216057 -19.585608 9.269629 -74.959671 -3.096284 1.373233 25.823107 10.449607 -60.850311 -18.158798 20.470493 15.742983 55.515633 48.282627 9.715841 67.777359 3.008030 1.558017 52.501202 42.648838 66.603760 -39.054634 12.614682 -0.016700 41.325672 -0.334541 -3.849311 15.659138 6.186677 -11.655520 -17.783157 -10.322265 -26.864388 68.256073 -1.454787 4.579948 -15.267466 -9.270972 3.975258 
